<?xml version="1.0" encoding="UTF-8"?>
<!DOCTYPE svg PUBLIC "-//W3C//DTD SVG 1.1//EN" "http://www.w3.org/Graphics/SVG/1.1/DTD/svg11.dtd">
<!-- Creator: CorelDRAW X7 -->
<svg xmlns="http://www.w3.org/2000/svg" xml:space="preserve" width="330mm" height="483mm" version="1.1" style="shape-rendering:geometricPrecision; text-rendering:geometricPrecision; image-rendering:optimizeQuality; fill-rule:evenodd; clip-rule:evenodd"
viewBox="0 0 33000 48300"
 xmlns:xlink="http://www.w3.org/1999/xlink">
 <defs>
  <style type="text/css">
   <![CDATA[
    .fil1 {fill:#332C2B}
    .fil0 {fill:#8E1517;fill-opacity:0.380392}
   ]]>
  </style>
 </defs>
 <g id="Layer_x0020_1">
  <metadata id="CorelCorpID_0Corel-Layer"/>
  <g id="_1995995373216">
   <path class="fil0" d="M10334 19511l0 6182c0,237 124,405 262,507 194,143 340,110 637,110l3076 0c110,0 273,10 377,-1 579,-63 726,-735 375,-1064 -123,-115 -279,-179 -455,-179l-3036 0 0 -1832 184 0 0 -1244 -184 0 0 -1811c0,-49 97,-31 143,-31l2678 0c321,0 385,21 595,-111 376,-235 350,-942 -172,-1096 -96,-28 -201,-37 -321,-37l-3454 0c-182,0 -371,37 -493,161 -115,117 -212,253 -212,446z"/>
   <path class="fil0" d="M17692 19469c0,180 -8,199 71,360 36,73 83,126 141,178 45,40 139,92 203,115 74,26 184,37 280,37l2964 0 0 1831 -184 0 0 1244 184 0 0 1832c-97,0 -152,10 -246,10 -343,-1 -2825,-12 -2908,4 -146,27 -260,100 -344,189 -329,345 -154,1043 473,1041l2800 0c256,0 562,-19 799,9 107,13 261,-32 329,-67 240,-123 380,-387 339,-657l-6 -2834c2,-54 11,-78 11,-144 0,-104 -11,-193 -11,-308l0 -2490c0,-325 43,-451 -116,-664 -104,-140 -310,-266 -539,-243l-3586 2c-240,0 -406,69 -543,256 -45,60 -111,198 -111,299z"/>
   <path class="fil0" d="M12490 18307l3352 0 0 3045c0,182 71,351 161,445 294,307 738,240 933,-13 79,-104 143,-216 143,-360l0 -3117 3362 0c457,0 813,-494 513,-980 -92,-149 -292,-265 -523,-265l-7931 0c-175,0 -329,58 -447,177 -397,400 -104,1068 437,1068z"/>
   <path class="fil0" d="M15842 23872l0 3045 -2432 0 0 -195 -1237 0 0 854c0,303 291,586 593,586l7399 0c164,0 323,-92 407,-177 102,-105 186,-246 186,-409l0 -854 -1206 0c-49,0 -31,69 -31,195l-2411 0c-51,0 -31,-138 -31,-236l0 -2438c0,-166 18,-389 -13,-533 -150,-702 -1224,-630 -1224,162z"/>
   <path class="fil0" d="M12204 24654l1175 0c24,0 31,-7 31,-31l0 -3251c0,-142 -61,-284 -145,-388 -17,-20 -20,-29 -37,-46 -18,-18 -19,-15 -40,-32 -311,-252 -711,-182 -931,160 -125,194 -84,504 -84,769 0,108 -10,178 -10,278l0 854c0,199 10,364 10,566l0 1008c0,49 -15,113 31,113z"/>
   <path class="fil0" d="M19521 24654c110,26 1019,10 1206,10 63,0 21,-156 20,-236 -1,-1043 8,-2098 1,-3138 -2,-325 -510,-777 -1011,-379 -88,70 -186,225 -203,361 -29,230 -13,3192 -13,3382z"/>
   <path class="fil0" d="M13819 22021l0 1183c0,23 7,30 30,30l787 0c549,0 815,-678 437,-1057 -53,-53 -105,-93 -177,-129 -52,-26 -176,-58 -249,-58l-798 0c-23,0 -30,7 -30,31z"/>
   <path class="fil0" d="M17692 22566c0,171 10,269 112,411 57,80 158,159 242,199 58,28 158,58 239,58l797 0c23,0 31,-7 31,-30l0 -1183c0,-24 -8,-31 -31,-31l-797 0c-297,0 -593,279 -593,576z"/>
   <path class="fil0" d="M12500 29448l-163 0 0 -257 122 0c90,0 153,28 169,108 17,84 -47,149 -128,149zm-470 -504l0 1100c0,24 7,31 31,31 334,0 277,60 276,-247 -1,-207 33,-142 204,103 129,185 64,144 429,144 64,0 5,-57 -22,-90l-243 -311c282,-66 364,-761 -205,-761l-439 0c-24,0 -31,7 -31,31z"/>
   <path class="fil0" d="M21790 28944l0 1100c0,24 7,31 31,31l746 0c53,0 31,-109 31,-257 0,-23 -8,-31 -31,-31l-470 0 0 -164 460 0c0,-149 22,-257 -31,-257l-429 0 0 -165 470 0c53,0 31,-109 31,-257 0,-24 -8,-31 -31,-31l-746 0c-24,0 -31,7 -31,31z"/>
   <path class="fil0" d="M13809 30044c0,24 7,31 30,31l736 0c24,0 31,-7 31,-31l0 -257 -501 0c0,-111 -16,-164 31,-164l429 0 0 -257 -460 0 0 -165 470 0c24,0 31,-7 31,-31l0 -257 -797 0 0 1131z"/>
   <path class="fil0" d="M15909 29261c16,52 28,96 42,150 11,45 31,119 34,160l-153 0 77 -310zm-527 783c0,24 7,31 31,31l256 0c63,0 56,-236 122,-236 322,0 256,-44 328,184 25,80 27,52 326,52 0,-54 -26,-105 -42,-153l-312 -878c-62,-156 7,-131 -290,-131 -40,0 -55,80 -67,117l-352 1014z"/>
   <path class="fil0" d="M20329 30075c325,0 206,75 394,-415l159 -448c20,-61 97,-249 101,-299l-307 0 -190 580c-17,79 -28,149 -45,222 -22,-35 -37,-168 -47,-210l-125 -408c-72,-236 -11,-184 -369,-184 1,57 27,101 44,150 19,54 34,92 51,144l262 735c15,37 32,133 72,133z"/>
   <path class="fil0" d="M10334 29324c0,276 -41,491 125,646 249,233 689,82 743,-152l-255 -113c-65,124 -204,127 -274,60 -68,-64 -43,-272 -43,-420 0,-104 38,-151 130,-168 121,-23 172,62 207,86 37,-9 75,-29 110,-44 41,-18 79,-30 115,-49 -11,-135 -220,-306 -489,-266 -210,31 -369,173 -369,420z"/>
   <path class="fil0" d="M17048 28964c0,94 -8,158 10,237l297 0 0 843c0,24 7,31 30,31l246 0c23,0 30,-7 30,-31l0 -843 297 0 0 -288 -900 0c-5,23 -10,24 -10,51z"/>
   <path class="fil0" d="M18796 30044c0,55 116,31 266,31 23,0 30,-7 30,-31l0 -1100c0,-24 -7,-31 -30,-31l-266 0 0 1131z"/>
   <path class="fil0" d="M18050 31063c10,-46 114,-298 143,-319 11,46 43,112 60,156 20,54 39,114 62,163 31,-22 45,-83 66,-140 20,-57 39,-103 58,-157l112 -310 -92 0c-9,37 -112,367 -144,391 -18,-80 -121,-297 -143,-391l-92 0c123,258 -5,225 -20,401l-20 0c-5,-56 -113,-314 -133,-401l-103 0 200 539c17,48 5,57 46,68z"/>
   <path class="fil0" d="M10528 30960l-102 0 0 -422c96,0 164,-12 233,54 125,118 64,368 -131,368zm-194 82c112,27 282,8 362,-46 218,-150 120,-540 -158,-540l-204 0 0 586z"/>
   <path class="fil0" d="M14003 31042c78,19 320,19 398,0l0 -82 -306 0 0 -175 265 0 0 -82 -265 0 0 -165 265 0c39,0 31,-24 31,-82l-388 0 0 586z"/>
   <path class="fil0" d="M21320 31042c78,19 321,19 399,0 0,-105 42,-82 -317,-82 0,-221 -54,-175 266,-175l0 -82c-313,0 -266,37 -266,-134 0,-97 306,48 306,-82 0,-24 -7,-31 -30,-31l-358 0 0 586z"/>
   <path class="fil0" d="M16455 30878c0,-172 215,-147 215,-31 0,76 -6,134 -112,134 -52,0 -103,-51 -103,-103zm62 175c139,0 82,-22 153,-41 0,219 -216,84 -225,82 -26,17 -32,17 -41,51 56,76 358,144 358,-164 0,-93 11,-199 -10,-288 -88,0 -54,17 -92,30 -10,-8 2,0 -18,-13 -114,-75 -254,0 -273,142 -13,92 63,201 148,201z"/>
   <path class="fil0" d="M12214 30754c166,0 165,227 0,227 -95,0 -121,-129 -74,-188 12,-14 53,-39 74,-39zm-184 114c0,107 69,185 184,185 69,0 84,-26 123,-52 0,234 -224,96 -235,93 -22,16 -26,29 -41,51 94,64 66,62 184,62 224,0 174,-259 174,-484 0,-34 -18,-30 -52,-30 -28,0 -24,8 -30,30 -53,-14 -45,-41 -133,-41 -96,0 -174,89 -174,186z"/>
   <path class="fil0" d="M14606 30868c0,-145 214,-122 214,-31 0,75 3,144 -112,144 -72,0 -102,-83 -102,-113zm214 -453l0 319c-32,-22 -66,-52 -112,-52 -255,0 -220,371 -41,371 98,0 78,-1 153,-41 8,68 92,47 92,0l0 -566c0,-53 -60,-44 -92,-31z"/>
   <path class="fil0" d="M11008 30878c3,-140 149,-154 174,-62 -24,12 -56,21 -82,31 -29,12 -58,23 -92,31zm-82 -10c0,150 96,185 215,185 41,0 51,-22 92,-31 -7,-32 -16,-40 -31,-62 -32,3 -117,57 -173,-20l255 -93c-5,-57 -21,-79 -53,-111 -123,-125 -305,-7 -305,132z"/>
   <path class="fil0" d="M19634 30878c3,-124 146,-165 174,-62 -24,12 -57,21 -82,31 -29,12 -59,23 -92,31zm-82 -10c0,173 156,226 307,154 -8,-32 -16,-40 -31,-62 -56,5 -28,21 -92,21 -37,0 -36,-13 -72,-21l0 -31c83,-19 189,-69 246,-82 -1,-57 -23,-81 -53,-111 -123,-125 -305,-8 -305,132z"/>
   <path class="fil0" d="M15985 30744l0 -41c-116,0 -81,15 -81,339 212,52 -26,-277 194,-277 77,0 51,197 51,277 65,16 20,15 82,0 0,-75 2,-152 0,-227 -2,-97 -47,-122 -123,-122 -61,0 -87,27 -123,51z"/>
   <path class="fil0" d="M12684 30744c-9,-19 -8,-13 -10,-41l-71 0 0 339c65,16 19,15 81,0 0,-184 -21,-306 143,-267 17,72 11,179 11,267 65,16 19,15 81,0 0,-278 32,-349 -132,-349 -49,0 -74,32 -103,51z"/>
   <path class="fil0" d="M20717 30487l0 751 82 0 0 -751c0,-45 -82,-45 -82,0z"/>
   <path class="fil0" d="M17253 30487l0 751 81 0 0 -751c0,-45 -81,-45 -81,0z"/>
   <path class="fil0" d="M19276 30693c-42,20 -61,-6 -61,51 0,37 20,31 61,31l0 267c59,14 21,17 92,0l0 -267 82 0c35,-147 -64,-14 -82,-103 -16,-79 44,-123 -61,-123 -49,0 -31,97 -31,144z"/>
   <path class="fil0" d="M21892 30693c-27,13 -11,9 -51,10l0 72 51 0c0,276 -24,295 92,267l0 -267c85,0 92,8 92,-41 0,-81 -89,29 -93,-81 -3,-103 31,-104 -80,-104 -12,52 -11,79 -11,144z"/>
   <path class="fil0" d="M13400 30487l0 751 71 0 0 -782 -41 0c-23,0 -30,7 -30,31z"/>
   <path class="fil0" d="M11397 30795c0,138 141,82 163,165 -47,70 -113,9 -153,0l-21 41c57,85 256,73 256,-61 0,-115 -140,-86 -157,-140 -6,-18 14,-84 116,-15 22,-33 27,-14 31,-62 -53,-12 -48,-30 -123,-30 -53,0 -112,46 -112,102z"/>
   <path class="fil0" d="M22179 30868c0,213 241,219 296,144 -10,-38 -11,-22 -31,-52 -193,103 -258,-195 -71,-195 44,0 31,16 82,20 13,-20 18,-28 30,-51 -84,-57 -200,-60 -263,12 -22,25 -43,77 -43,122z"/>
   <path class="fil0" d="M15352 30693c-25,14 -19,10 -62,10 0,76 -5,72 62,72l0 267c65,16 19,15 81,0l0 -267c102,0 92,10 92,-72l-61 0c-86,0 36,-154 -82,-154 -49,0 -30,97 -30,144z"/>
   <path class="fil0" d="M20124 30754c-1,-50 1,-51 -51,-51 -50,0 -30,106 -30,154 0,62 0,124 0,185 138,34 78,-61 92,-174 18,-139 122,-31 122,-155 0,-73 -114,29 -133,41z"/>
   <path class="fil0" d="M18714 30754c-1,-57 1,-51 -82,-51l0 339c66,16 20,15 82,0 0,-67 -8,-151 14,-202 45,-106 119,-9 119,-127 0,-75 -117,30 -133,41z"/>
   <path class="fil0" d="M15055 31042c81,22 26,6 92,0 0,-61 0,-123 0,-185 0,-128 23,-154 -61,-154 -50,0 -31,106 -31,154 0,62 0,124 0,185z"/>
   <path class="fil0" d="M18990 31042c27,7 19,11 41,11 23,0 12,-4 41,-11l0 -339 -82 0 0 339z"/>
   <path class="fil0" d="M15648 31042c27,7 19,11 41,11 23,0 12,-4 41,-11l0 -339 -82 0 0 339z"/>
   <path class="fil0" d="M11805 31042c61,14 25,5 82,0l0 -339 -82 0 0 339z"/>
   <path class="fil0" d="M19021 30641c168,-39 -39,-158 -38,-51 0,18 13,30 26,42 1,1 5,4 6,5 1,1 4,3 6,4z"/>
   <path class="fil0" d="M11795 30590c0,35 32,44 61,51 113,-98 -61,-125 -61,-51z"/>
   <path class="fil0" d="M15648 30579c0,100 92,54 92,11 0,-49 -92,-62 -92,-11z"/>
   <path class="fil0" d="M15055 30590c0,25 24,67 92,31 0,-117 -92,-72 -92,-31z"/>
   <path class="fil0" d="M22577 31001c0,86 180,23 41,-51 -17,12 -41,22 -41,51z"/>
  </g>
  <path class="fil1" d="M21284 18724c-45,-4 -89,6 -152,40 -19,9 -134,55 -255,99 -121,45 -391,166 -602,269 -210,102 -550,264 -755,360 -206,96 -403,189 -437,209 -36,18 -213,102 -396,185 -417,192 -1496,704 -1716,815 -296,150 -565,293 -901,478 -182,99 -335,181 -341,182 -6,-1 3,-78 18,-172 17,-95 48,-278 71,-407 21,-129 69,-407 105,-616 34,-209 71,-398 79,-421 7,-21 34,-160 59,-308 26,-148 58,-331 73,-409 16,-76 48,-250 73,-387 24,-137 52,-286 64,-333 11,-48 32,-153 44,-234 13,-82 30,-187 39,-236 10,-47 22,-120 28,-161 7,-40 17,-109 23,-151 15,-89 -10,-187 -58,-240 -77,-83 -223,-95 -313,-26 -50,38 -53,42 -107,204 -30,92 -73,235 -95,317 -22,82 -66,240 -97,350 -31,110 -65,239 -75,287 -8,48 -34,150 -58,229 -38,127 -56,202 -130,545 -12,54 -73,317 -138,585 -165,690 -262,1126 -280,1268 -8,67 -42,270 -74,450l-59 326 -51 29c-27,16 -187,110 -356,210 -168,99 -391,229 -493,292 -104,61 -219,125 -258,143 -38,18 -204,110 -369,205 -165,95 -323,183 -352,195 -30,12 -153,77 -275,143 -122,66 -309,164 -414,216 -106,52 -268,138 -361,192 -93,53 -190,105 -215,116 -70,29 -199,126 -235,179 -46,66 -58,151 -31,219 56,140 131,168 437,167 121,1 227,-3 237,-5 8,-4 180,-5 378,-2 199,1 433,4 519,5 337,3 1045,60 1133,91 17,6 102,24 190,39 85,15 158,31 161,36 2,4 -12,174 -31,377 -19,204 -48,553 -65,777 -16,226 -34,420 -39,433 -27,74 -62,1118 -58,1760 1,154 -1,288 -5,298 -4,10 -1,195 4,412 6,217 10,456 12,531 3,283 7,373 21,613 9,136 17,287 17,334 1,48 10,169 21,270 10,100 15,190 11,199 -3,9 5,87 16,175 12,87 20,164 18,172 -10,26 45,288 70,330 59,100 167,137 276,97 142,-54 168,-147 164,-560 0,-99 -5,-193 -9,-210 -4,-17 -6,-67 -5,-109 0,-43 -2,-112 -8,-152 -10,-87 -13,-614 -7,-1033 4,-158 2,-297 -1,-308 -16,-43 47,-1017 96,-1492 17,-167 34,-343 39,-393 16,-172 43,-376 55,-409 9,-30 18,-33 69,-28 141,13 269,-71 350,-230 112,-223 222,-608 231,-807 18,-505 16,-532 -54,-735 -21,-64 -63,-151 -91,-192l-53 -76 43 -120c23,-66 68,-211 98,-321 31,-110 79,-260 104,-332l49 -131 -9 437c-5,241 -5,602 -1,803 4,201 7,417 7,480 -1,120 18,387 37,512 5,42 8,82 6,89 -10,27 39,229 84,351 58,157 109,214 217,244 275,76 489,-186 754,-919l106 -290 -9 104c-6,56 -13,112 -17,122 -15,43 14,202 46,256 64,107 192,144 313,89 85,-39 112,-73 313,-412 314,-528 430,-683 534,-708 78,-17 134,-66 160,-138 62,-175 -76,-329 -273,-304 -171,24 -282,119 -469,406 -100,151 -121,178 -117,144 73,-621 94,-825 100,-921 2,-55 -42,-171 -81,-213 -37,-40 -146,-79 -200,-71 -58,8 -129,51 -168,103 -22,29 -61,136 -131,348 -239,733 -450,1337 -498,1432 -27,52 -80,159 -117,236 -93,196 -102,202 -132,78 -13,-54 -31,-185 -39,-290 -10,-105 -23,-225 -29,-266 -36,-215 -23,-1769 17,-2082 4,-36 8,-107 8,-162 0,-54 2,-114 5,-133 9,-80 -13,-230 -42,-289 -82,-167 -316,-191 -420,-43 -67,95 -247,641 -428,1299 -42,153 -78,278 -82,280 -12,7 123,-1054 206,-1604 31,-197 63,-408 72,-470 16,-108 18,-112 53,-131 19,-10 117,-66 219,-124 102,-58 221,-125 265,-148 44,-24 113,-61 151,-82 125,-69 401,-215 676,-358 367,-191 1783,-858 2114,-997 148,-61 408,-177 577,-255 169,-78 345,-155 389,-171 45,-14 158,-59 252,-99 195,-84 300,-124 405,-158 42,-14 175,-62 295,-108 121,-45 253,-91 294,-102 39,-10 89,-35 109,-53 42,-39 84,-147 76,-198 -16,-119 -104,-208 -218,-221l0 0zm-5656 1229c-82,488 -129,759 -176,1034 -26,155 -54,325 -62,377 -33,211 -33,211 -101,249 -62,35 -62,35 -58,1 10,-89 68,-383 100,-506 21,-75 68,-279 106,-454 57,-260 211,-915 222,-948 15,-41 4,41 -31,247l0 0zm-389 2372c-76,496 -163,1152 -199,1502 -8,79 -17,147 -18,152 -3,6 -34,-1 -72,-14 -64,-23 -68,-27 -62,-62 3,-21 23,-179 45,-350 49,-375 137,-982 182,-1258l32 -198 59 -34c34,-20 65,-34 69,-33 4,0 -12,134 -36,295l0 0zm-453 349c-57,374 -112,769 -143,1023 -23,193 -23,193 -65,178 -108,-37 -826,-103 -1406,-128 -125,-6 -235,-14 -246,-18 -10,-4 -125,-9 -255,-11 -129,-2 -237,-8 -239,-11 -5,-12 178,-123 433,-262 148,-80 289,-161 316,-180 27,-19 125,-78 217,-130 243,-138 523,-304 579,-344 27,-19 231,-145 455,-277 318,-189 407,-236 408,-217 0,14 -23,184 -54,377l0 0zm184 1793c-7,36 -18,151 -26,258 -7,107 -18,242 -23,298 -19,200 -19,866 0,919 7,20 -78,557 -115,729 -35,154 -86,641 -119,1126 -3,53 -9,98 -12,100 -18,9 3,-1264 30,-1753 8,-134 12,-253 9,-261 -9,-26 68,-1026 108,-1405l13 -127 74 27 74 26 -13 63zm413 845c-8,11 -7,0 2,-24 8,-24 14,-33 14,-20 -2,13 -9,33 -16,44zm-23 106c-8,11 -8,2 -1,-18 8,-21 14,-29 15,-20 -1,9 -7,27 -14,38zm-19 93c-8,11 -7,0 2,-24 8,-24 14,-33 14,-21 -2,14 -9,34 -16,45zm-21 99c-7,7 -7,0 -1,-17 6,-18 11,-24 12,-15 0,10 -6,25 -11,32z"/>
 </g>
</svg>
